<?xml version="1.0" encoding="utf-8"?>
<svg viewBox="0 0 500 500" xmlns="http://www.w3.org/2000/svg">
  <path d="M 485.431 249.033 C 485.431 379.106 379.987 484.55 249.914 484.55 C 119.839 484.55 14.394 379.106 14.394 249.033 C 14.394 118.958 119.839 13.513 249.914 13.513 C 379.987 13.513 485.431 118.958 485.431 249.033 Z M 175.021 122.626 L 125.093 122.626 L 125.093 372.263 L 175.021 372.263 L 175.021 122.626 Z M 375.535 322.338 L 224.948 322.338 L 224.948 372.263 L 375.535 372.263 L 375.535 322.338 Z M 375.535 222.48 L 224.948 222.48 L 224.948 272.409 L 375.535 272.409 L 375.535 222.48 Z M 375.535 122.626 L 224.948 122.626 L 224.948 172.553 L 375.535 172.553 L 375.535 122.626 Z" style="fill: rgb(173, 173, 173);"/>
</svg>