<svg width="25" height="24" viewBox="0 0 25 24" fill="none" xmlns="http://www.w3.org/2000/svg">
<path d="M12.5001 0C5.59739 0 0 5.50847 0 12.3038C0 17.74 3.58166 22.3519 8.54833 23.9789C9.17305 24.0927 9.4024 23.7119 9.4024 23.387C9.4024 23.0936 9.39081 22.1244 9.38543 21.0963C5.90789 21.8405 5.17408 19.6446 5.17408 19.6446C4.60546 18.2224 3.78617 17.8443 3.78617 17.8443C2.65204 17.0806 3.87166 17.0963 3.87166 17.0963C5.12689 17.1831 5.78783 18.3642 5.78783 18.3642C6.90271 20.2452 8.71207 19.7014 9.42538 19.387C9.53757 18.5918 9.86152 18.049 10.219 17.7418C7.44256 17.4307 4.52391 16.3757 4.52391 11.6612C4.52391 10.3179 5.01221 9.22032 5.81184 8.35868C5.68205 8.04878 5.25419 6.79737 5.93293 5.10261C5.93293 5.10261 6.98261 4.77193 9.37135 6.3638C10.3685 6.09119 11.4378 5.95447 12.5001 5.94979C13.5624 5.95447 14.6326 6.09119 15.6315 6.3638C18.0174 4.77193 19.0656 5.10261 19.0656 5.10261C19.746 6.79737 19.3179 8.04878 19.1882 8.35868C19.9897 9.22032 20.4746 10.3179 20.4746 11.6612C20.4746 16.3869 17.5504 17.4274 14.7669 17.732C15.2153 18.1138 15.6148 18.8626 15.6148 20.0105C15.6148 21.6568 15.6003 22.9817 15.6003 23.387C15.6003 23.7144 15.8253 24.098 16.4589 23.9772C21.4229 22.3485 25 17.7381 25 12.3038C25 5.50847 19.4034 0 12.5001 0ZM4.6817 17.527C4.65416 17.5882 4.55646 17.6065 4.46745 17.5645C4.37679 17.5244 4.32587 17.4411 4.35526 17.3797C4.38217 17.3168 4.48008 17.2992 4.57054 17.3414C4.66141 17.3816 4.71316 17.4657 4.6817 17.527ZM5.29656 18.0671C5.23695 18.1215 5.12041 18.0962 5.04133 18.0102C4.95957 17.9244 4.94425 17.8097 5.0047 17.7545C5.06617 17.7001 5.17919 17.7256 5.26116 17.8114C5.34293 17.8981 5.35887 18.012 5.29656 18.0671ZM5.71838 18.758C5.64179 18.8104 5.51656 18.7613 5.43914 18.6518C5.36256 18.5424 5.36256 18.4112 5.4408 18.3587C5.51842 18.3061 5.64179 18.3534 5.72025 18.462C5.79663 18.5732 5.79663 18.7044 5.71838 18.758ZM6.43177 19.5582C6.36326 19.6326 6.21732 19.6126 6.11051 19.5111C6.00122 19.4119 5.97079 19.2711 6.03952 19.1968C6.10886 19.1222 6.25562 19.1432 6.36326 19.2438C6.47172 19.3428 6.50484 19.4846 6.43177 19.5582ZM7.35376 19.8283C7.32354 19.9247 7.18299 19.9685 7.0414 19.9276C6.90002 19.8854 6.8075 19.7725 6.83606 19.6751C6.86546 19.5781 7.00663 19.5325 7.14925 19.5763C7.29042 19.6183 7.38315 19.7303 7.35376 19.8283ZM8.40302 19.9429C8.40654 20.0444 8.28648 20.1285 8.13786 20.1304C7.98841 20.1336 7.86752 20.0515 7.86587 19.9517C7.86587 19.8492 7.98323 19.7659 8.13268 19.7634C8.28131 19.7606 8.40302 19.8421 8.40302 19.9429ZM9.4338 19.904C9.45161 20.0031 9.34831 20.1047 9.20073 20.1318C9.05562 20.1579 8.92128 20.0968 8.90286 19.9986C8.88485 19.8971 8.99 19.7954 9.1349 19.7692C9.2827 19.7439 9.41497 19.8034 9.4338 19.904Z" fill="#ADADAD"/>
</svg>
