<svg width="23" height="23" viewBox="0 0 23 23" fill="none" xmlns="http://www.w3.org/2000/svg">
<path d="M0 2.67172C0 1.89729 0.259016 1.2584 0.777027 0.755051C1.29504 0.251676 1.96848 0 2.7973 0C3.61133 0 4.26994 0.247796 4.77317 0.743434C5.29118 1.25455 5.55019 1.92052 5.55019 2.74141C5.55019 3.48485 5.29859 4.10436 4.79537 4.6C4.27736 5.11111 3.59653 5.36667 2.7529 5.36667H2.7307C1.91666 5.36667 1.25805 5.11111 0.754826 4.6C0.251601 4.08889 0 3.44612 0 2.67172ZM0.28861 23V7.48081H5.21718V23H0.28861ZM7.94788 23H12.8764V14.3343C12.8764 13.7922 12.9357 13.3741 13.0541 13.0798C13.2613 12.5532 13.5758 12.1079 13.9976 11.7439C14.4194 11.38 14.9485 11.198 15.5849 11.198C17.2426 11.198 18.0714 12.3673 18.0714 14.7061V23H23V14.102C23 11.8098 22.482 10.0712 21.4459 8.88636C20.4099 7.70152 19.0409 7.10909 17.3388 7.10909C15.4295 7.10909 13.9421 7.96869 12.8764 9.68788V9.73434H12.8542L12.8764 9.68788V7.48081H7.94788C7.97747 7.97642 7.99228 9.51749 7.99228 12.104C7.99228 14.6906 7.97747 18.3225 7.94788 23Z" fill="#ADADAD"/>
</svg>
