<svg width="110" height="68" viewBox="0 0 110 68" fill="none" xmlns="http://www.w3.org/2000/svg">
<path d="M4 0C1.79086 0 0 1.79086 0 4V64C0 66.2091 1.79086 68 4 68H106C108.209 68 110 66.2091 110 64V4C110 1.79086 108.209 0 106 0H4ZM34.0131 32.8914C34.0131 35.1005 32.2222 36.8914 30.0131 36.8914H28.8684C26.6592 36.8914 24.8684 35.1005 24.8684 32.8914V14.1525C24.8684 11.9434 26.6592 10.1525 28.8684 10.1525H30.0131C32.2222 10.1525 34.0131 11.9434 34.0131 14.1525V32.8914ZM51.0526 32.8914C51.0526 35.1005 49.2617 36.8914 47.0526 36.8914H45.9079C43.6987 36.8914 41.9079 35.1005 41.9079 32.8914V14.1525C41.9079 11.9434 43.6987 10.1525 45.9079 10.1525H47.0526C49.2618 10.1525 51.0526 11.9434 51.0526 14.1525V32.8914ZM85.1316 53.8478C85.1316 56.057 83.3408 57.8478 81.1316 57.8478H62.9474C60.7383 57.8478 58.9474 56.057 58.9474 53.8478V50.4301C58.9474 48.2209 60.7383 46.4301 62.9474 46.4301H81.1316C83.3408 46.4301 85.1316 48.2209 85.1316 50.4301V53.8478ZM85.1316 32.8914C85.1316 35.1005 83.3408 36.8914 81.1316 36.8914H62.9474C60.7383 36.8914 58.9474 35.1005 58.9474 32.8914V14.1525C58.9474 11.9434 60.7383 10.1525 62.9474 10.1525H81.1316C83.3408 10.1525 85.1316 11.9434 85.1316 14.1525V32.8914Z" fill="#ADADAD"/>
</svg>
