<svg width="110" height="110" viewBox="0 0 110 110" fill="none" xmlns="http://www.w3.org/2000/svg">
<path d="M109.635 71.2266V39.503H96.0874C91.2989 27.1131 81.0574 17.4321 68.3909 13.3909L55 0L41.5756 13.4244C37.8569 14.614 34.3479 16.2936 31.098 18.3962L22.2436 9.54177H9.17695V22.6084L18.0278 31.4593C16.3747 34.0183 14.9806 36.7783 13.8685 39.6986C6.23899 40.8442 0.364822 47.4216 0.364822 55.3648C0.364822 63.2993 6.22489 69.8713 13.8403 71.0275C19.0606 84.7427 30.7596 94.9454 44.9736 98.2534L37.7459 110H72.2541L65.0264 98.2552C69.9912 97.1043 74.644 95.1163 78.9143 92.3458L85.0511 98.4826C86.7959 100.227 89.117 101.188 91.5844 101.188C96.6778 101.188 100.823 97.0426 100.823 91.9492C100.823 89.4818 99.8625 87.1607 98.1177 85.4159L91.9739 79.2721C93.5883 76.773 94.9559 74.0783 96.0557 71.2266H109.635ZM106.11 43.0278V67.7018H81.4364V43.0278H106.11ZM66.6073 16.5915L56.7624 26.4364V17.3211L62.0497 12.0338L66.6073 16.5915ZM55 4.98414L59.5576 9.54177L55 14.0994L50.4424 9.54177L55 4.98414ZM47.9503 12.0338L53.2376 17.3211V26.4364L43.3927 16.5915L47.9503 12.0338ZM39.6775 17.8604L55 33.1829L70.3313 17.8516C80.1674 21.884 88.123 29.6951 92.3017 39.503H77.9115V65.2097L33.6482 20.9464C35.5657 19.755 37.5767 18.717 39.6775 17.8604ZM23.2763 15.5587L77.9115 70.1939V71.2266H78.9443L79.8255 72.1079L77.0303 74.9031L20.4811 18.3539L23.2763 15.5587ZM12.7018 13.0666H20.7843L12.7018 21.1491V13.0666ZM15.1939 23.6412L17.9891 20.846L74.5382 77.3951L71.743 80.1903L15.1939 23.6412ZM16.2266 43.0278C19.577 43.0278 22.6172 44.3761 24.8431 46.5527H7.61015C9.83609 44.3761 12.8763 43.0278 16.2266 43.0278ZM21.5139 50.0775V60.6521H10.9394V50.0775H21.5139ZM7.41452 63.9831C5.23793 61.7554 3.88967 58.717 3.88967 55.3648C3.88967 52.0127 5.23793 48.9743 7.41452 46.7483V63.9831ZM7.61015 64.1769H24.8449C22.6172 66.3535 19.5788 67.7018 16.2266 67.7018C12.8745 67.7018 9.83609 66.3535 7.61015 64.1769ZM65.9447 106.475H44.0553L55 88.6888L65.9447 106.475ZM63.0613 95.0634L55 81.9633L46.9387 95.0634C33.8262 92.4145 22.8692 83.4438 17.6718 71.1526C25.742 70.4195 32.0885 63.6235 32.0885 55.3648C32.0885 47.1149 25.7561 40.3225 17.6965 39.577C18.5178 37.6278 19.4836 35.7684 20.5746 34.006L76.3712 89.8026C72.2823 92.3475 67.8164 94.1047 63.0613 95.0634ZM25.0388 63.9813V46.7483C27.2154 48.9743 28.5636 52.0145 28.5636 55.3648C28.5636 58.7152 27.2154 61.7554 25.0388 63.9813ZM77.0303 85.4776L74.2351 82.6824L82.3176 74.5999L85.1128 77.3951L77.0303 85.4776ZM95.6257 87.908C96.7043 88.9866 97.2982 90.423 97.2982 91.9492C97.2982 95.1005 94.7356 97.663 91.5844 97.663C90.0582 97.663 88.6218 97.0691 87.5432 95.9905L79.5224 87.9697L87.6049 79.8872L95.6257 87.908ZM89.4255 76.7237L83.9284 71.2266H92.2718C91.4575 73.1495 90.5023 74.9841 89.4255 76.7237Z" fill="#ADADAD"/>
<path d="M93.7733 44.9894L81.78 64.177H105.765L93.7733 44.9894ZM93.7733 51.6408L99.4043 60.6521H88.1406L93.7733 51.6408Z" fill="#ADADAD"/>
<path d="M56.7624 99.4254H53.2376V102.95H56.7624V99.4254Z" fill="#ADADAD"/>
</svg>
